<?xml version="1.0" encoding="UTF-8"?>
<!-- Generator: visioncortex VTracer 0.6.4 -->
<svg version="1.1" xmlns="http://www.w3.org/2000/svg" width="1115" height="1115">
<path d="M0 0 C367.95 0 735.9 0 1115 0 C1115 367.95 1115 735.9 1115 1115 C747.05 1115 379.1 1115 0 1115 C0 747.05 0 379.1 0 0 Z " fill="#000000" transform="translate(0,0)"/>
<path d="M0 0 C367.95 0 735.9 0 1115 0 C1115 367.95 1115 735.9 1115 1115 C937.46 1115 759.92 1115 577 1115 C577 1114.67 577 1114.34 577 1114 C577.765 1113.966 578.53 1113.931 579.319 1113.896 C632.291 1111.376 688.296 1103.845 737.848 1084.184 C741.075 1082.972 744.317 1081.97 747.625 1081 C752.693 1079.49 757.302 1077.552 762.066 1075.277 C765.424 1073.815 768.819 1072.724 772.312 1071.625 C778.831 1069.563 784.737 1066.829 790.781 1063.648 C794.13 1061.933 797.536 1060.466 801 1059 C805.317 1056.948 809.595 1054.849 813.688 1052.375 C816 1051 816 1051 819.188 1049.688 C827.29 1046.297 834.546 1041.016 841.89 1036.252 C845.789 1033.737 849.745 1031.428 853.82 1029.219 C863.974 1023.541 873.474 1016.658 883 1010 C883.959 1009.331 884.918 1008.662 885.906 1007.973 C896.607 1000.35 906.975 992.003 916.617 983.074 C918 982 918 982 920 982 C920 981.34 920 980.68 920 980 C921.828 978.344 921.828 978.344 924.25 976.5 C925.039 975.892 925.828 975.283 926.641 974.656 C929 973 929 973 931.172 972.031 C933.149 971.143 933.149 971.143 933.921 969.127 C935.069 966.864 936.218 965.627 938.09 963.934 C938.704 963.371 939.319 962.808 939.952 962.228 C940.607 961.637 941.263 961.046 941.938 960.438 C943.296 959.192 944.652 957.944 946.008 956.695 C946.681 956.076 947.354 955.456 948.048 954.817 C950.857 952.202 953.598 949.525 956.312 946.812 C957.175 945.953 958.037 945.093 958.926 944.207 C961.132 941.982 961.132 941.982 963 939 C963.66 939 964.32 939 965 939 C965.217 938.465 965.433 937.93 965.656 937.379 C967.483 934.145 969.959 931.613 972.5 928.938 C975.211 926.062 977.798 923.302 980 920 C980.66 920 981.32 920 982 920 C982.236 919.279 982.472 918.559 982.715 917.816 C984.215 914.529 986.058 912.537 988.562 909.938 C993.847 904.273 998.452 898.274 1003 892 C1003.737 891.001 1004.475 890.002 1005.234 888.973 C1009.132 883.72 1009.132 883.72 1012.602 878.184 C1013.063 877.463 1013.525 876.742 1014 876 C1014.66 876 1015.32 876 1016 876 C1016.206 875.175 1016.413 874.35 1016.625 873.5 C1018.059 869.85 1019.781 867.5 1022.168 864.445 C1029.324 854.893 1035.184 844.399 1041 834 C1041.45 833.224 1041.9 832.448 1042.363 831.648 C1046.379 824.664 1049.653 817.321 1053 810 C1053.66 810 1054.32 810 1055 810 C1055.16 808.937 1055.16 808.937 1055.324 807.852 C1056.075 804.683 1057.283 802.247 1058.812 799.375 C1060.802 795.509 1062.537 791.741 1063.938 787.625 C1065.46 783.21 1067.372 779.088 1069.5 774.938 C1077.284 759.721 1082.325 743.312 1087.5 727.062 C1087.962 725.617 1087.962 725.617 1088.434 724.143 C1090.035 719.115 1091.563 714.078 1093 709 C1093.643 706.978 1094.289 704.957 1094.938 702.938 C1097.073 696.038 1098.561 689.072 1100 682 C1100.35 680.478 1100.704 678.957 1101.062 677.438 C1101.824 674.027 1102.389 670.612 1102.906 667.156 C1103.633 662.36 1104.393 657.571 1105.184 652.785 C1107.391 639.281 1109.389 625.806 1110.75 612.188 C1110.865 611.041 1110.981 609.894 1111.099 608.713 C1112.652 592.246 1113.209 575.784 1113.188 559.25 C1113.187 558.366 1113.186 557.482 1113.186 556.571 C1113.045 480.014 1096.756 404.088 1066 334 C1065.583 333.041 1065.166 332.083 1064.737 331.095 C1043.584 282.712 1014.796 237.71 980.422 197.665 C978.947 195.938 977.486 194.201 976.027 192.461 C970.432 185.817 964.666 179.524 958.453 173.453 C956.331 171.331 954.37 169.169 952.438 166.875 C949.093 162.954 945.334 159.618 941.469 156.219 C939.241 154.216 937.145 152.151 935.062 150 C931.195 146.07 926.997 142.651 922.699 139.203 C920.348 137.284 918.107 135.305 915.875 133.25 C910.247 128.18 904.157 123.706 898.121 119.141 C893.959 115.987 889.903 112.724 885.883 109.391 C883.946 107.81 883.946 107.81 881 107 C881 106.34 881 105.68 881 105 C880.272 104.741 879.543 104.482 878.793 104.215 C875.898 102.956 873.804 101.492 871.312 99.562 C863.552 93.814 855.298 88.927 847 84 C846.048 83.434 845.095 82.868 844.114 82.285 C833.987 76.284 823.837 70.332 813.438 64.812 C812.778 64.462 812.119 64.112 811.439 63.751 C807.37 61.627 803.221 59.8 799 58 C797.769 57.407 796.543 56.805 795.32 56.195 C719.967 18.794 632.431 1.449 383.562 30.875 C359.062 39.127 335.315 48.819 312 60 C311.238 60.362 310.477 60.723 309.692 61.096 C282.435 74.076 256.313 90.139 232 108 C230.939 108.777 229.878 109.555 228.785 110.355 C225.836 112.545 222.913 114.763 220 117 C219.458 117.416 218.916 117.831 218.358 118.26 C206.641 127.276 195.406 136.814 184.477 146.77 C183.117 147.994 181.75 149.212 180.357 150.398 C174.468 155.433 168.991 160.857 163.527 166.343 C161.94 167.935 160.348 169.521 158.756 171.107 C153.293 176.567 148.016 182.123 143 188 C141.587 189.545 140.171 191.087 138.75 192.625 C133.72 198.206 129.126 204.08 124.536 210.022 C122.93 212.09 121.307 214.144 119.68 216.195 C99.314 241.96 82.169 269.5 66.483 298.305 C65.273 300.504 64.033 302.676 62.762 304.84 C61.274 307.509 60.027 310.159 58.863 312.98 C57.809 315.447 56.659 317.86 55.504 320.281 C21.813 391.26 4.014 468.5 2 547 C1.977 547.89 1.953 548.78 1.929 549.697 C0.126 631.253 18.19 711.428 59.976 805.998 C61.101 808.198 62.182 810.416 63.258 812.641 C75.972 838.824 91.711 863.6 109 887 C110.152 888.564 110.152 888.564 111.328 890.16 C116.081 896.554 120.978 902.815 126 909 C127.063 910.326 127.063 910.326 128.148 911.68 C132.736 917.361 137.49 922.835 142.445 928.199 C144.433 930.379 146.382 932.578 148.316 934.805 C156.82 944.551 165.602 954.219 175.383 962.699 C178.14 965.123 180.807 967.625 183.474 970.146 C190.098 976.401 196.858 982.338 204 988 C205.127 988.918 206.254 989.837 207.379 990.758 C229.522 1008.8 253.315 1024.663 278 1039 C278.689 1039.4 279.377 1039.801 280.087 1040.213 C284.69 1042.873 289.331 1045.457 294 1048 C294.79 1048.432 295.579 1048.863 296.393 1049.308 C308.602 1055.948 320.989 1061.757 333.822 1067.083 C336.535 1068.225 339.207 1069.444 341.875 1070.688 C353.961 1076.242 366.451 1080.689 379.062 1084.875 C379.84 1085.134 380.618 1085.392 381.419 1085.659 C432.306 1102.515 484.491 1111.627 538 1114 C538 1114.33 538 1114.66 538 1115 C360.46 1115 182.92 1115 0 1115 C0 747.05 0 379.1 0 0 Z " fill="#FEFEFE" transform="translate(0,0)"/>
<path d="M0 0 C0 0.66 0 1.32 0 2 C1.702 1.954 1.702 1.954 3.438 1.906 C8.079 1.906 12.453 2.625 17 3.5 C18.162 3.715 18.162 3.715 19.348 3.934 C21.233 4.283 23.117 4.64 25 5 C25 5.66 25 6.32 25 7 C25.909 7.073 25.909 7.073 26.836 7.148 C32.998 7.698 38.959 8.676 45 10 C45 10.66 45 11.32 45 12 C45.888 12.091 45.888 12.091 46.793 12.184 C50.91 12.62 54.955 13.087 59 14 C59 14.66 59 15.32 59 16 C75.552 16.655 90.575 15.594 106.642 11.459 C109.148 10.971 111.453 10.921 114 11 C114 10.34 114 9.68 114 9 C117.812 8.04 121.625 7.082 125.438 6.125 C126.507 5.856 127.576 5.586 128.678 5.309 C133.456 4.11 138.237 2.92 143.035 1.805 C144.048 1.569 144.048 1.569 145.082 1.328 C147 1 147 1 151 1 C151 0.34 151 -0.32 151 -1 C152.771 -1.027 154.542 -1.046 156.312 -1.062 C157.299 -1.074 158.285 -1.086 159.301 -1.098 C164.548 -0.908 166.538 1.278 170 5 C176.317 12.406 178.544 23.569 180 33 C180.66 33 181.32 33 182 33 C182.66 36.96 183.32 40.92 184 45 C184.66 45 185.32 45 186 45 C186.84 47.581 187.673 50.165 188.5 52.75 C188.858 53.844 188.858 53.844 189.223 54.961 C189.448 55.67 189.674 56.379 189.906 57.109 C190.116 57.759 190.325 58.408 190.541 59.077 C191 61 191 61 191 65 C191.66 65 192.32 65 193 65 C193.66 68.3 194.32 71.6 195 75 C195.66 75 196.32 75 197 75 C197.242 75.895 197.485 76.789 197.734 77.711 C198.432 80.228 199.149 82.729 199.898 85.23 C200.557 87.485 201.165 89.756 201.664 92.051 C202.437 94.917 203.072 96.731 205 99 C209.555 100.812 214.165 101.339 219 102 C221.299 102.531 223.592 103.091 225.875 103.688 C226.862 103.939 227.85 104.19 228.867 104.449 C229.923 104.722 229.923 104.722 231 105 C231 105.66 231 106.32 231 107 C232.237 107.144 233.475 107.289 234.75 107.438 C237.565 107.787 240.27 108.204 243 109 C243 109.66 243 110.32 243 111 C244.011 111.103 245.021 111.206 246.062 111.312 C255.431 112.948 264.381 118.425 272 124 C274 127 274 127 273.625 129.688 C273.316 130.832 273.316 130.832 273 132 C264.363 132.983 255.804 133.142 247.118 133.127 C245.635 133.128 244.152 133.13 242.669 133.132 C238.618 133.136 234.568 133.134 230.518 133.131 C226.138 133.128 221.759 133.132 217.379 133.135 C208.804 133.139 200.228 133.138 191.653 133.135 C184.668 133.133 177.684 133.133 170.699 133.134 C169.703 133.134 168.706 133.134 167.68 133.134 C165.655 133.135 163.63 133.135 161.605 133.135 C142.619 133.138 123.634 133.135 104.648 133.129 C88.424 133.125 72.2 133.126 55.976 133.13 C37.089 133.136 18.203 133.138 -0.683 133.135 C-2.707 133.134 -4.731 133.134 -6.755 133.134 C-7.751 133.134 -8.746 133.134 -9.772 133.133 C-16.722 133.132 -23.671 133.134 -30.621 133.136 C-39.13 133.139 -47.639 133.138 -56.149 133.133 C-60.475 133.13 -64.801 133.129 -69.127 133.133 C-86.006 133.145 -102.871 133.036 -119.743 132.554 C-120.829 132.525 -120.829 132.525 -121.937 132.496 C-123.951 132.44 -125.966 132.376 -127.981 132.312 C-129.123 132.276 -130.266 132.24 -131.443 132.203 C-134 132 -134 132 -135 131 C-135.041 129 -135.043 127 -135 125 C-118.203 116.509 -118.203 116.509 -111.852 113.797 C-110.148 113.064 -108.478 112.254 -106.812 111.438 C-100.13 108.569 -92.239 107 -85 107 C-85 106.34 -85 105.68 -85 105 C-81.73 104.496 -78.459 103.998 -75.188 103.5 C-74.259 103.357 -73.33 103.214 -72.373 103.066 C-71.48 102.931 -70.588 102.796 -69.668 102.656 C-68.846 102.531 -68.024 102.405 -67.177 102.275 C-65 102 -65 102 -62 102 C-61.963 101.443 -61.925 100.886 -61.887 100.312 C-61.821 99.549 -61.755 98.786 -61.688 98 C-61.629 97.257 -61.571 96.515 -61.512 95.75 C-61.067 93.36 -60.461 91.462 -59.582 89.215 C-57.962 85.065 -56.945 80.908 -56 76.562 C-54.843 71.453 -53.626 66.473 -51.859 61.535 C-50.561 57.704 -49.446 53.82 -48.312 49.938 C-47.972 48.773 -47.972 48.773 -47.625 47.586 C-47.082 45.724 -46.541 43.862 -46 42 C-45.34 42 -44.68 42 -44 42 C-43.867 41.108 -43.734 40.216 -43.598 39.297 C-43.333 37.541 -43.333 37.541 -43.062 35.75 C-42.888 34.59 -42.714 33.43 -42.535 32.234 C-42.127 29.769 -41.661 27.406 -41 25 C-40.34 25 -39.68 25 -39 25 C-38.918 23.701 -38.835 22.401 -38.75 21.062 C-37.797 12.859 -34.639 7.064 -28.781 1.312 C-21.861 -3.786 -8.043 -1.313 0 0 Z " fill="#FCFCFC" transform="translate(483,291)"/>
<path d="M0 0 C0.99 0 1.98 0 3 0 C3 0.66 3 1.32 3 2 C3.66 2 4.32 2 5 2 C5.588 3.763 5.588 3.763 6.188 5.562 C8.833 12.539 12.789 17.182 18.645 21.738 C19.092 22.155 19.539 22.571 20 23 C20 23.66 20 24.32 20 25 C23.588 26.866 27.278 28.425 31 30 C30.67 32.64 30.34 35.28 30 38 C29.34 38 28.68 38 28 38 C27.67 40.64 27.34 43.28 27 46 C26.34 46 25.68 46 25 46 C24.845 47.794 24.845 47.794 24.688 49.625 C24.192 53.627 22.809 56.383 21 60 C19.872 63.971 18.918 67.976 18 72 C17.34 72 16.68 72 16 72 C15.867 72.831 15.734 73.663 15.598 74.52 C15.333 76.15 15.333 76.15 15.062 77.812 C14.888 78.891 14.714 79.97 14.535 81.082 C14 84 14 84 13 87 C12.34 87 11.68 87 11 87 C10.66 88.732 10.66 88.732 10.312 90.5 C8.083 100.548 4.726 110.419 1 120 C0.327 121.998 -0.341 123.997 -1 126 C6.632 125.933 14.263 125.843 21.894 125.738 C24.487 125.704 27.079 125.676 29.672 125.654 C33.413 125.62 37.154 125.567 40.895 125.512 C42.614 125.502 42.614 125.502 44.368 125.492 C52.802 125.341 60.038 123.654 68 121 C68.33 120.01 68.66 119.02 69 118 C70.742 116.352 70.742 116.352 72.875 114.625 C76.013 111.986 78.023 109.625 80 106 C80.66 106 81.32 106 82 106 C84.104 100.067 85.76 94.172 87 88 C87.66 88 88.32 88 89 88 C89.025 83.286 89.043 78.572 89.055 73.858 C89.06 72.257 89.067 70.656 89.075 69.054 C89.088 66.743 89.093 64.432 89.098 62.121 C89.103 61.414 89.108 60.706 89.113 59.977 C89.114 53.861 88.573 48.086 86.5 42.312 C85.522 39.559 84.668 36.846 84 34 C84.629 33.72 85.258 33.441 85.906 33.152 C91.523 30.522 95.93 27.657 100.406 23.355 C102 22 102 22 104 22 C104.371 21.134 104.371 21.134 104.75 20.25 C106.183 17.671 107.784 15.939 110 14 C110.66 14 111.32 14 112 14 C112.289 13.237 112.577 12.474 112.875 11.688 C114 9 114 9 116 6 C116.66 6 117.32 6 118 6 C121.206 13.743 123.732 21.3 125.422 29.516 C125.753 31.929 125.753 31.929 127 33 C129.037 43.484 129.316 53.953 129.261 64.598 C129.25 67.064 129.261 69.528 129.273 71.994 C129.285 84.248 128.486 96.079 124.875 107.875 C124.522 109.048 124.169 110.221 123.805 111.43 C123.539 112.278 123.274 113.126 123 114 C122.34 114 121.68 114 121 114 C120.898 114.859 120.796 115.717 120.691 116.602 C119.942 120.285 118.674 123.05 116.938 126.375 C116.116 127.964 116.116 127.964 115.277 129.586 C114.856 130.383 114.434 131.179 114 132 C113.34 132 112.68 132 112 132 C111.629 132.804 111.629 132.804 111.25 133.625 C106.163 143.29 98.797 148.882 90 155 C88.975 155.717 88.975 155.717 87.93 156.449 C81.487 160.722 73.814 165 66 165 C66 165.66 66 166.32 66 167 C51.111 169.95 33.936 172.734 19 169 C19 209.26 19 249.52 19 291 C1.84 291 -15.32 291 -33 291 C-33.33 250.08 -33.66 209.16 -34 167 C-37.96 168.65 -41.92 170.3 -46 172 C-59.847 176.616 -77.421 176.058 -90.727 169.758 C-100.07 164.74 -111.045 157.494 -115.094 147.227 C-115.393 146.492 -115.692 145.757 -116 145 C-116.99 144.67 -117.98 144.34 -119 144 C-119.949 141.715 -119.949 141.715 -120.688 138.938 C-121.065 137.559 -121.065 137.559 -121.449 136.152 C-121.722 135.087 -121.722 135.087 -122 134 C-122.66 134 -123.32 134 -124 134 C-124.66 131.36 -125.32 128.72 -126 126 C-126.66 126 -127.32 126 -128 126 C-128.504 123.897 -129.003 121.792 -129.5 119.688 C-129.778 118.516 -130.057 117.344 -130.344 116.137 C-131 113 -131 113 -131 110 C-131.66 110 -132.32 110 -133 110 C-137.257 83.792 -140.981 49.078 -130.707 23.84 C-129.226 19.986 -128.583 15.887 -127.746 11.855 C-127 9 -127 9 -125 6 C-124.34 6 -123.68 6 -123 6 C-121.309 7.863 -121.309 7.863 -119.438 10.312 C-118.817 11.113 -118.197 11.914 -117.559 12.738 C-116 15 -116 15 -115 18 C-113.504 19.302 -113.504 19.302 -111.688 20.438 C-109.562 21.879 -107.859 23.145 -106.062 25 C-102.017 28.923 -97.009 31.496 -92 34 C-92.33 36.97 -92.66 39.94 -93 43 C-93.66 43 -94.32 43 -95 43 C-95.025 48.831 -95.043 54.662 -95.055 60.493 C-95.06 62.469 -95.067 64.445 -95.075 66.421 C-95.127 78.328 -94.949 90.127 -94 102 C-93.34 102 -92.68 102 -92 102 C-91.841 102.678 -91.683 103.356 -91.52 104.055 C-89.044 113.928 -85.158 123.531 -78 131 C-73.723 133.508 -69.909 133.402 -65.062 133.438 C-63.865 133.487 -63.865 133.487 -62.643 133.537 C-58.278 133.577 -56.573 133.473 -53.094 130.602 C-52.403 129.743 -51.712 128.885 -51 128 C-50.154 127.319 -49.309 126.639 -48.438 125.938 C-45.343 122.208 -44.323 118.553 -42.992 113.938 C-41.991 110.973 -40.658 108.64 -39 106 C-38.304 103.809 -38.304 103.809 -38 102 C-37.34 102 -36.68 102 -36 102 C-35.89 101.371 -35.781 100.742 -35.668 100.094 C-35.509 99.238 -35.351 98.382 -35.188 97.5 C-34.961 96.247 -34.961 96.247 -34.73 94.969 C-33.808 91.219 -32.356 87.616 -31 84 C-42.88 84 -54.76 84 -67 84 C-67 73.77 -67 63.54 -67 53 C-51.16 53 -35.32 53 -19 53 C-18.34 49.7 -17.68 46.4 -17 43 C-16.34 43 -15.68 43 -15 43 C-14.34 39.37 -13.68 35.74 -13 32 C-12.34 32 -11.68 32 -11 32 C-10.83 31.261 -10.66 30.523 -10.484 29.762 C-8.002 19.371 -4.494 9.682 0 0 Z " fill="#FBFBFB" transform="translate(556,490)"/>
<path d="M0 0 C0.911 -0.007 1.822 -0.013 2.76 -0.02 C5.78 -0.039 8.8 -0.043 11.82 -0.045 C13.922 -0.052 16.023 -0.059 18.125 -0.066 C22.538 -0.078 26.95 -0.081 31.363 -0.08 C36.999 -0.08 42.636 -0.107 48.272 -0.142 C52.618 -0.164 56.963 -0.168 61.308 -0.167 C63.385 -0.169 65.462 -0.178 67.538 -0.194 C70.456 -0.213 73.372 -0.207 76.289 -0.195 C77.137 -0.207 77.984 -0.218 78.858 -0.229 C86.228 -0.153 93.229 1.627 98.722 6.728 C100.097 9.291 100.097 9.291 100.097 14.291 C104.717 14.291 109.337 14.291 114.097 14.291 C114.427 12.971 114.757 11.651 115.097 10.291 C116.539 5.965 118.791 4.314 122.535 1.801 C130.578 -1.61 139.744 -0.659 148.336 -0.569 C150.507 -0.568 152.678 -0.57 154.848 -0.575 C159.382 -0.576 163.914 -0.553 168.447 -0.512 C174.256 -0.461 180.063 -0.463 185.872 -0.483 C190.348 -0.493 194.823 -0.479 199.299 -0.456 C201.441 -0.448 203.583 -0.447 205.725 -0.452 C208.715 -0.455 211.703 -0.426 214.692 -0.388 C215.575 -0.395 216.458 -0.402 217.367 -0.409 C221.797 -0.317 223.549 -0.148 227.123 2.708 C231.827 8.861 230.605 17.455 229.824 24.896 C228.626 31.1 225.851 36.646 223.097 42.291 C222.525 43.545 222.525 43.545 221.941 44.826 C214.7 60.262 204.455 70.197 188.547 76.263 C175.537 80.407 161.283 79.191 148.91 73.541 C133.408 65.018 126.667 52.282 121.148 36.169 C120.378 33.43 120.378 33.43 119.097 32.291 C117.319 32.133 115.534 32.04 113.75 31.974 C112.13 31.911 112.13 31.911 110.478 31.847 C109.342 31.808 108.206 31.769 107.035 31.728 C105.895 31.685 104.755 31.642 103.58 31.597 C100.752 31.491 97.925 31.389 95.097 31.291 C94.916 32.602 94.916 32.602 94.73 33.939 C91.882 49.025 82.634 62.857 70.597 72.103 C59.672 79.494 44.799 79.793 32.121 77.83 C29.669 77.151 27.429 76.309 25.097 75.291 C23.69 74.722 23.69 74.722 22.254 74.142 C10.245 68.788 0.897 60.134 -4.903 48.291 C-5.425 47.27 -5.947 46.249 -6.485 45.197 C-11.485 34.978 -14.131 25.647 -14.215 14.291 C-14.221 13.56 -14.226 12.829 -14.232 12.077 C-14.181 8.366 -14.108 5.359 -11.903 2.291 C-7.96 -0.338 -4.576 -0.005 0 0 Z " fill="#FB6B35" transform="translate(444.902587890625,440.70947265625)"/>
<path d="M0 0 C12.691 -0.116 25.382 -0.205 38.074 -0.259 C43.967 -0.285 49.86 -0.321 55.753 -0.377 C61.439 -0.431 67.125 -0.461 72.812 -0.474 C74.982 -0.484 77.152 -0.502 79.322 -0.529 C82.361 -0.565 85.398 -0.57 88.436 -0.568 C89.335 -0.586 90.233 -0.604 91.159 -0.622 C95.366 -0.587 98.018 -0.515 101.098 2.535 C101.725 3.349 102.353 4.162 103 5 C102.67 5.66 102.34 6.32 102 7 C101.208 6.351 100.415 5.703 99.599 5.034 C95.383 2.245 91.34 2.426 86.415 2.454 C85.468 2.444 84.521 2.433 83.545 2.423 C80.428 2.393 77.312 2.392 74.195 2.391 C72.029 2.376 69.863 2.359 67.697 2.341 C62.005 2.297 56.314 2.277 50.622 2.262 C44.811 2.242 38.999 2.2 33.188 2.16 C21.792 2.085 10.396 2.035 -1 2 C-0.67 1.34 -0.34 0.68 0 0 Z " fill="#C56443" transform="translate(571,441)"/>
<path d="M0 0 C0.99 0.495 0.99 0.495 2 1 C0.925 2.299 -0.16 3.589 -1.25 4.875 C-1.853 5.594 -2.457 6.314 -3.078 7.055 C-4.996 8.996 -6.576 9.828 -9 11 C-9.825 11.99 -10.65 12.98 -11.5 14 C-13.856 16.827 -14.854 17.525 -18 19 C-20.705 21.497 -23.06 24.074 -25.375 26.938 C-27.701 29.79 -30.306 32.091 -33.156 34.41 C-37.911 38.51 -42.112 43.213 -46.375 47.812 C-46.947 48.427 -47.519 49.041 -48.109 49.674 C-51.746 53.595 -55.272 57.58 -58.633 61.742 C-60 63 -60 63 -63 63 C-62.373 62.336 -62.373 62.336 -61.734 61.658 C-59.8 59.607 -57.869 57.553 -55.938 55.5 C-55.281 54.804 -54.624 54.108 -53.947 53.391 C-50.822 50.066 -47.744 46.724 -44.781 43.254 C-40.183 37.96 -35.195 33.045 -30.23 28.1 C-28.566 26.441 -26.907 24.776 -25.248 23.111 C-19.672 17.531 -14.033 12.09 -8 7 C-6.747 5.904 -6.747 5.904 -5.469 4.785 C-3.646 3.19 -1.823 1.595 0 0 Z " fill="#1F1F1F" transform="translate(196,135)"/>
<path d="M0 0 C0.33 0.66 0.66 1.32 1 2 C0.34 2 -0.32 2 -1 2 C-1.33 3.65 -1.66 5.3 -2 7 C0.31 7.33 2.62 7.66 5 8 C2.647 10.724 0.375 11.814 -3 13 C-3.388 12.355 -3.776 11.711 -4.176 11.047 C-5.839 8.791 -5.839 8.791 -8.48 8.391 C-9.82 8.321 -9.82 8.321 -11.188 8.25 C-12.539 8.165 -12.539 8.165 -13.918 8.078 C-14.605 8.052 -15.292 8.027 -16 8 C-13.621 5.621 -11.734 5.078 -8.562 4 C-5.295 2.886 -2.892 1.928 0 0 Z " fill="#1C1817" transform="translate(646,510)"/>
<path d="M0 0 C1.609 1.052 1.609 1.052 3.25 2.125 C2.92 2.785 2.59 3.445 2.25 4.125 C0.27 4.125 -1.71 4.125 -3.75 4.125 C-3.42 6.105 -3.09 8.085 -2.75 10.125 C-5.188 9.312 -5.188 9.312 -7.75 8.125 C-8.08 7.135 -8.41 6.145 -8.75 5.125 C-10.75 3.916 -10.75 3.916 -12.75 3.125 C-12.09 2.795 -11.43 2.465 -10.75 2.125 C-10.09 2.455 -9.43 2.785 -8.75 3.125 C-8.42 2.135 -8.09 1.145 -7.75 0.125 C-4.77 -2.511 -3.189 -1.827 0 0 Z " fill="#0C0C0B" transform="translate(456.75,507.875)"/>
<path d="M0 0 C0.66 0 1.32 0 2 0 C1.624 2.782 1.327 4.588 -0.438 6.812 C-2 8 -2 8 -4 8 C-4.09 8.575 -4.18 9.15 -4.273 9.742 C-5.695 14.161 -9.457 17.158 -13 20 C-15.423 21.116 -17.344 21.557 -20 22 C-17.531 19.46 -15.094 17.074 -12.312 14.875 C-9.808 13.034 -9.808 13.034 -8 10 C-7.34 10 -6.68 10 -6 10 C-5.629 8.917 -5.629 8.917 -5.25 7.812 C-3.877 4.724 -2.276 2.49 0 0 Z " fill="#4B4B4B" transform="translate(668,622)"/>
<path d="M0 0 C7.92 0 15.84 0 24 0 C24 0.33 24 0.66 24 1 C17.4 1.33 10.8 1.66 4 2 C3.67 2.99 3.34 3.98 3 5 C2.34 5 1.68 5 1 5 C0.67 6.98 0.34 8.96 0 11 C-1.32 11.33 -2.64 11.66 -4 12 C-2.667 8 -1.333 4 0 0 Z " fill="#161514" transform="translate(540,472)"/>
<path d="M0 0 C0 0.33 0 0.66 0 1 C-6.6 1 -13.2 1 -20 1 C-20.33 1.66 -20.66 2.32 -21 3 C-24 3 -27 3 -30 3 C-23.662 -4.289 -8.652 -1.413 0 0 Z " fill="#BCBCBC" transform="translate(483,291)"/>
<path d="M0 0 C0.66 0 1.32 0 2 0 C3.625 2 3.625 2 5 4 C4.67 4.66 4.34 5.32 4 6 C3.01 6 2.02 6 1 6 C0.598 7.145 0.598 7.145 0.188 8.312 C-0.944 10.874 -1.912 12.197 -4 14 C-3.533 8.586 -2.757 4.795 0 0 Z " fill="#DBDBDB" transform="translate(431,496)"/>
<path d="M0 0 C0.66 0 1.32 0 2 0 C0.533 5.722 -2.412 10.369 -6 15 C-6.99 15.495 -6.99 15.495 -8 16 C-8.688 14.188 -8.688 14.188 -9 12 C-7.688 10.25 -7.688 10.25 -6 9 C-5.34 9 -4.68 9 -4 9 C-3.67 7.35 -3.34 5.7 -3 4 C-2.34 4 -1.68 4 -1 4 C-0.67 2.68 -0.34 1.36 0 0 Z " fill="#E06C40" transform="translate(532,488)"/>
<path d="M0 0 C1.245 2.491 0.777 3.411 0 6 C0.66 6.33 1.32 6.66 2 7 C0.623 9.754 -1.367 10.515 -4 12 C-4.33 11.67 -4.66 11.34 -5 11 C-5.66 11.66 -6.32 12.32 -7 13 C-7 9.162 -5.735 7.885 -3.5 4.812 C-2.85 3.911 -2.201 3.01 -1.531 2.082 C-1.026 1.395 -0.521 0.708 0 0 Z " fill="#1C1512" transform="translate(662,493)"/>
<path d="M0 0 C0.66 0.33 1.32 0.66 2 1 C-2.523 5.775 -5.567 7.902 -12 9 C-12.928 9.186 -13.856 9.371 -14.812 9.562 C-15.534 9.707 -16.256 9.851 -17 10 C-14.761 7.49 -12.725 6.27 -9.625 5 C-6.916 3.859 -4.577 2.739 -2.062 1.188 C-1.382 0.796 -0.701 0.404 0 0 Z " fill="#4F4F4F" transform="translate(646,644)"/>
<path d="M0 0 C1.32 0 2.64 0 4 0 C4 4.95 4 9.9 4 15 C3.67 15 3.34 15 3 15 C2.67 13.35 2.34 11.7 2 10 C1.34 10.99 0.68 11.98 0 13 C0 8.667 0 4.333 0 0 Z " fill="#221B19" transform="translate(427,448)"/>
<path d="M0 0 C-6.76 3.74 -11.935 4.455 -19.562 3.75 C-20.476 3.684 -21.389 3.619 -22.33 3.551 C-24.556 3.388 -26.778 3.204 -29 3 C-29 2.67 -29 2.34 -29 2 C-28.426 1.98 -27.851 1.96 -27.259 1.94 C-24.631 1.844 -22.003 1.735 -19.375 1.625 C-18.471 1.594 -17.568 1.563 -16.637 1.531 C-11.222 1.294 -4.858 -1.619 0 0 Z " fill="#757575" transform="translate(513,662)"/>
<path d="M0 0 C0.66 0.33 1.32 0.66 2 1 C-2.333 5.925 -5.47 8.801 -12 10 C-8.299 6.075 -4.45 3.054 0 0 Z " fill="#373737" transform="translate(660,634)"/>
<path d="M0 0 C1.5 1.312 1.5 1.312 3 3 C3 3.99 3 4.98 3 6 C0.69 7.32 -1.62 8.64 -4 10 C-3.524 8.52 -3.044 7.041 -2.562 5.562 C-2.296 4.739 -2.029 3.915 -1.754 3.066 C-1 1 -1 1 0 0 Z " fill="#150F0E" transform="translate(668,482)"/>
<path d="M0 0 C0 3.106 -0.539 4.353 -2 7 C-1.34 7 -0.68 7 0 7 C0 7.66 0 8.32 0 9 C-1.65 9.33 -3.3 9.66 -5 10 C-5.33 11.32 -5.66 12.64 -6 14 C-7 12 -7 12 -6.328 9.941 C-5.972 9.156 -5.617 8.371 -5.25 7.562 C-4.905 6.78 -4.559 5.998 -4.203 5.191 C-3.023 3.041 -1.819 1.626 0 0 Z " fill="#B3B3B3" transform="translate(452,295)"/>
<path d="M0 0 C0.66 0 1.32 0 2 0 C2.33 1.65 2.66 3.3 3 5 C3.66 5 4.32 5 5 5 C5.99 8.3 6.98 11.6 8 15 C7.01 14.34 6.02 13.68 5 13 C4.312 9.375 4.312 9.375 4 6 C3.34 6 2.68 6 2 6 C2 5.34 2 4.68 2 4 C1.01 4 0.02 4 -1 4 C-0.67 2.68 -0.34 1.36 0 0 Z " fill="#7A7A7A" transform="translate(557,486)"/>
<path d="M0 0 C0.931 3.048 1.02 5.408 0.625 8.562 C0.535 9.327 0.445 10.091 0.352 10.879 C0 13 0 13 -1 16 C-1.33 15.67 -1.66 15.34 -2 15 C-2.66 15.66 -3.32 16.32 -4 17 C-3.357 11.087 -1.81 5.658 0 0 Z " fill="#B9B9B9" transform="translate(437,333)"/>
<path d="M0 0 C3.724 1.213 7.378 2.509 11 4 C11 4.99 11 5.98 11 7 C7.877 6.392 5.807 5.38 3.25 3.5 C2.636 3.057 2.023 2.613 1.391 2.156 C0.932 1.775 0.473 1.393 0 1 C0 0.67 0 0.34 0 0 Z " fill="#CE6741" transform="translate(453,505)"/>
<path d="M0 0 C0.66 0.33 1.32 0.66 2 1 C1.526 1.577 1.051 2.155 0.562 2.75 C-0.948 4.926 -1.54 6.426 -2 9 C-2.99 9 -3.98 9 -5 9 C-5.66 9.66 -6.32 10.32 -7 11 C-5.706 5.641 -4.522 3.362 0 0 Z " fill="#CC6845" transform="translate(566,444)"/>
<path d="M0 0 C0.99 0.66 1.98 1.32 3 2 C2.812 4.875 2.812 4.875 2 8 C-0.562 9.375 -0.562 9.375 -3 10 C-2.01 6.7 -1.02 3.4 0 0 Z " fill="#DFDFDF" transform="translate(549,508)"/>
<path d="M0 0 C-1.702 0.681 -1.702 0.681 -3.438 1.375 C-7.047 2.571 -7.047 2.571 -8 5 C-9.98 4.34 -11.96 3.68 -14 3 C-11.87 0.87 -10.959 0.524 -8.125 -0.188 C-7.447 -0.367 -6.769 -0.546 -6.07 -0.73 C-3.772 -1.03 -2.194 -0.694 0 0 Z " fill="#ABABAB" transform="translate(616,297)"/>
<path d="M0 0 C-0.33 0.99 -0.66 1.98 -1 3 C-2.176 2.969 -2.176 2.969 -3.375 2.938 C-5.981 2.813 -5.981 2.813 -8 4 C-8 3.34 -8 2.68 -8 2 C-8.66 1.67 -9.32 1.34 -10 1 C-6.218 -0.837 -4.054 -1.158 0 0 Z " fill="#101010" transform="translate(373,36)"/>
<path d="M0 0 C0.934 3.01 1.044 3.867 0 7 C-0.66 7 -1.32 7 -2 7 C-2.33 8.98 -2.66 10.96 -3 13 C-5 9.25 -5 9.25 -5 7 C-3.667 5.667 -2.333 4.333 -1 3 C-0.67 2.01 -0.34 1.02 0 0 Z " fill="#484848" transform="translate(520,585)"/>
<path d="M0 0 C0.66 0.99 1.32 1.98 2 3 C-0.64 4.65 -3.28 6.3 -6 8 C-6.33 7.01 -6.66 6.02 -7 5 C-6.01 5 -5.02 5 -4 5 C-4 4.34 -4 3.68 -4 3 C-3.01 3 -2.02 3 -1 3 C-0.67 2.01 -0.34 1.02 0 0 Z " fill="#DE6C42" transform="translate(648,505)"/>
<path d="M0 0 C2.503 2.938 3.469 5.179 4 9 C3.01 9.33 2.02 9.66 1 10 C1 9.01 1 8.02 1 7 C0.34 6.67 -0.32 6.34 -1 6 C-0.67 4.02 -0.34 2.04 0 0 Z " fill="#181514" transform="translate(434,476)"/>
<path d="M0 0 C0.512 2.05 1.018 4.105 1.375 6.188 C1.581 6.786 1.788 7.384 2 8 C2.99 8.33 3.98 8.66 5 9 C2.69 9 0.38 9 -2 9 C-1.34 6.03 -0.68 3.06 0 0 Z " fill="#292929" transform="translate(557,607)"/>
<path d="M0 0 C1.98 0 3.96 0 6 0 C6.33 1.65 6.66 3.3 7 5 C6.01 5 5.02 5 4 5 C1.812 2.5 1.812 2.5 0 0 Z " fill="#E46B3E" transform="translate(447,499)"/>
<path d="M0 0 C0.99 0 1.98 0 3 0 C3.33 0.99 3.66 1.98 4 3 C4.66 3.33 5.32 3.66 6 4 C6.625 6.562 6.625 6.562 7 9 C4.036 6.192 1.555 3.817 0 0 Z " fill="#E07046" transform="translate(576,497)"/>
<path d="M0 0 C1.333 2.667 2.667 5.333 4 8 C2.68 7.34 1.36 6.68 0 6 C0 5.34 0 4.68 0 4 C-1.32 3.34 -2.64 2.68 -4 2 C-3.34 1.67 -2.68 1.34 -2 1 C-1.34 1.33 -0.68 1.66 0 2 C0 1.34 0 0.68 0 0 Z " fill="#383939" transform="translate(448,509)"/>
<path d="M0 0 C1.575 3.15 0.708 5.635 0 9 C-1.562 10.938 -1.562 10.938 -3 12 C-2.143 3.429 -2.143 3.429 0 0 Z " fill="#999999" transform="translate(430,498)"/>
<path d="M0 0 C0.33 0.66 0.66 1.32 1 2 C-0.215 5.424 -2.018 7.012 -5 9 C-5.33 7.35 -5.66 5.7 -6 4 C-5.34 3.67 -4.68 3.34 -4 3 C-4 3.66 -4 4.32 -4 5 C-1.489 3.745 -1.129 2.499 0 0 Z " fill="#464646" transform="translate(511,608)"/>
<path d="M0 0 C2.64 0.99 5.28 1.98 8 3 C6.25 4.125 6.25 4.125 4 5 C1.75 4.125 1.75 4.125 0 3 C0 2.01 0 1.02 0 0 Z " fill="#0C0B0A" transform="translate(467,514)"/>
<path d="M0 0 C1.65 0.33 3.3 0.66 5 1 C4.01 2.485 4.01 2.485 3 4 C3.33 4.66 3.66 5.32 4 6 C-0.875 4.25 -0.875 4.25 -2 2 C-1.34 2 -0.68 2 0 2 C0 1.34 0 0.68 0 0 Z " fill="#2C2C2C" transform="translate(456,516)"/>
<path d="M0 0 C0.66 0.33 1.32 0.66 2 1 C1.34 2.32 0.68 3.64 0 5 C-2.667 5 -5.333 5 -8 5 C-5.771 2.771 -3.909 2.119 -1 1 C-0.67 0.67 -0.34 0.34 0 0 Z " fill="#191614" transform="translate(514,512)"/>
<path d="M0 0 C0.66 0.33 1.32 0.66 2 1 C1.25 2.938 1.25 2.938 0 5 C-2.125 5.75 -2.125 5.75 -4 6 C-4.33 5.01 -4.66 4.02 -5 3 C-2.625 1.438 -2.625 1.438 0 0 Z " fill="#141414" transform="translate(287,72)"/>
<path d="M0 0 C1.231 2.463 1.072 4.28 1 7 C0.34 7 -0.32 7 -1 7 C-1.33 7.99 -1.66 8.98 -2 10 C-3.392 5.824 -1.823 3.865 0 0 Z " fill="#CACACA" transform="translate(515,600)"/>
<path d="M0 0 C0.99 0 1.98 0 3 0 C3 0.66 3 1.32 3 2 C3.66 2 4.32 2 5 2 C4.67 2.66 4.34 3.32 4 4 C2.35 4 0.7 4 -1 4 C-1.33 4.66 -1.66 5.32 -2 6 C-1.494 3.831 -1 2 0 0 Z " fill="#C5C5C5" transform="translate(556,490)"/>
<path d="M0 0 C3.558 0.61 6.683 1.578 10 3 C7.453 4.274 6.572 3.802 3.875 3.062 C3.151 2.868 2.426 2.673 1.68 2.473 C1.125 2.317 0.571 2.161 0 2 C0 1.34 0 0.68 0 0 Z " fill="#AC6146" transform="translate(472,515)"/>
<path d="M0 0 C0.33 0.66 0.66 1.32 1 2 C0.064 4.36 -0.933 6.696 -2 9 C-2.99 9 -3.98 9 -5 9 C-3.35 6.03 -1.7 3.06 0 0 Z " fill="#261D19" transform="translate(533,490)"/>
<path d="M0 0 C1.32 1.65 2.64 3.3 4 5 C3.67 5.66 3.34 6.32 3 7 C1.68 6.01 0.36 5.02 -1 4 C-0.67 2.68 -0.34 1.36 0 0 Z " fill="#161211" transform="translate(571,491)"/>
</svg>
