<svg width="235" height="44" viewBox="0 0 235 44" fill="none" xmlns="http://www.w3.org/2000/svg">
<rect x="0.5" y="0.5" width="234" height="43" rx="9.5" fill="#8C0623"/>
<rect x="0.5" y="0.5" width="234" height="43" rx="9.5" stroke="#02043D"/>
<path d="M17.808 27V18.6H25.044V27H23.868V19.332L24.156 19.644H18.696L18.996 19.332V27H17.808ZM29.7755 27.072C29.1355 27.072 28.5675 26.932 28.0715 26.652C27.5755 26.372 27.1835 25.988 26.8955 25.5C26.6075 25.004 26.4635 24.444 26.4635 23.82C26.4635 23.188 26.6075 22.628 26.8955 22.14C27.1835 21.652 27.5755 21.272 28.0715 21C28.5675 20.72 29.1355 20.58 29.7755 20.58C30.4075 20.58 30.9715 20.72 31.4675 21C31.9715 21.272 32.3635 21.652 32.6435 22.14C32.9315 22.62 33.0755 23.18 33.0755 23.82C33.0755 24.452 32.9315 25.012 32.6435 25.5C32.3635 25.988 31.9715 26.372 31.4675 26.652C30.9715 26.932 30.4075 27.072 29.7755 27.072ZM29.7755 26.064C30.1835 26.064 30.5475 25.972 30.8675 25.788C31.1955 25.604 31.4515 25.344 31.6355 25.008C31.8195 24.664 31.9115 24.268 31.9115 23.82C31.9115 23.364 31.8195 22.972 31.6355 22.644C31.4515 22.308 31.1955 22.048 30.8675 21.864C30.5475 21.68 30.1835 21.588 29.7755 21.588C29.3675 21.588 29.0035 21.68 28.6835 21.864C28.3635 22.048 28.1075 22.308 27.9155 22.644C27.7235 22.972 27.6275 23.364 27.6275 23.82C27.6275 24.268 27.7235 24.664 27.9155 25.008C28.1075 25.344 28.3635 25.604 28.6835 25.788C29.0035 25.972 29.3675 26.064 29.7755 26.064ZM33.9241 27.096C33.8201 27.096 33.7081 27.084 33.5881 27.06C33.4761 27.044 33.3521 27.02 33.2161 26.988L33.2881 26.016C33.3441 26.024 33.3961 26.032 33.4441 26.04C33.4921 26.048 33.5361 26.052 33.5761 26.052C33.8321 26.052 34.0321 25.964 34.1761 25.788C34.3281 25.612 34.4401 25.38 34.5121 25.092C34.5841 24.796 34.6361 24.464 34.6681 24.096C34.7001 23.728 34.7241 23.36 34.7401 22.992L34.8481 20.64H39.7321V27H38.5801V21.312L38.8561 21.648H35.5921L35.8561 21.3L35.7721 23.064C35.7481 23.624 35.7041 24.148 35.6401 24.636C35.5761 25.124 35.4761 25.552 35.3401 25.92C35.2121 26.288 35.0321 26.576 34.8001 26.784C34.5761 26.992 34.2841 27.096 33.9241 27.096ZM41.8636 29.4C41.5596 29.4 41.2636 29.348 40.9756 29.244C40.6876 29.148 40.4396 29.004 40.2316 28.812L40.7236 27.948C40.8836 28.1 41.0596 28.216 41.2516 28.296C41.4436 28.376 41.6476 28.416 41.8636 28.416C42.1436 28.416 42.3756 28.344 42.5596 28.2C42.7436 28.056 42.9156 27.8 43.0756 27.432L43.4716 26.556L43.5916 26.412L46.0876 20.64H47.2156L44.1316 27.636C43.9476 28.084 43.7396 28.436 43.5076 28.692C43.2836 28.948 43.0356 29.128 42.7636 29.232C42.4916 29.344 42.1916 29.4 41.8636 29.4ZM43.3756 27.204L40.4716 20.64H41.6716L44.1436 26.304L43.3756 27.204ZM49.8471 24.912C49.0791 24.912 48.4711 24.732 48.0231 24.372C47.5831 24.012 47.3631 23.456 47.3631 22.704V20.64H48.5151V22.632C48.5151 23.088 48.6551 23.424 48.9351 23.64C49.2231 23.856 49.6071 23.964 50.0871 23.964C50.3911 23.964 50.7031 23.924 51.0231 23.844C51.3511 23.764 51.6711 23.652 51.9831 23.508V24.396C51.6471 24.556 51.2991 24.684 50.9391 24.78C50.5871 24.868 50.2231 24.912 49.8471 24.912ZM51.8991 27V20.64H53.0511V27H51.8991ZM54.8676 27V20.64H56.0196V25.272L59.9196 20.64H60.9636V27H59.8116V22.368L55.9236 27H54.8676ZM64.0396 27V21.348L64.3276 21.648H61.7116V20.64H67.5196V21.648H64.9156L65.1916 21.348V27H64.0396ZM71.0376 27.012L68.2776 27V20.64H69.4296V22.788L71.2176 22.8C72.0256 22.808 72.6416 22.992 73.0656 23.352C73.4896 23.712 73.7016 24.22 73.7016 24.876C73.7016 25.564 73.4696 26.096 73.0056 26.472C72.5416 26.84 71.8856 27.02 71.0376 27.012ZM70.9416 26.136C71.4616 26.144 71.8536 26.04 72.1176 25.824C72.3896 25.608 72.5256 25.288 72.5256 24.864C72.5256 24.448 72.3936 24.144 72.1296 23.952C71.8656 23.76 71.4696 23.66 70.9416 23.652L69.4296 23.628V26.124L70.9416 26.136ZM80.3346 27.072C79.6866 27.072 79.1066 26.932 78.5946 26.652C78.0906 26.372 77.6946 25.988 77.4066 25.5C77.1186 25.012 76.9746 24.452 76.9746 23.82C76.9746 23.188 77.1186 22.628 77.4066 22.14C77.6946 21.652 78.0906 21.272 78.5946 21C79.1066 20.72 79.6866 20.58 80.3346 20.58C80.9106 20.58 81.4226 20.696 81.8706 20.928C82.3266 21.152 82.6786 21.488 82.9266 21.936L82.0506 22.5C81.8426 22.188 81.5866 21.96 81.2826 21.816C80.9866 21.664 80.6666 21.588 80.3226 21.588C79.9066 21.588 79.5346 21.68 79.2066 21.864C78.8786 22.048 78.6186 22.308 78.4266 22.644C78.2346 22.972 78.1386 23.364 78.1386 23.82C78.1386 24.276 78.2346 24.672 78.4266 25.008C78.6186 25.344 78.8786 25.604 79.2066 25.788C79.5346 25.972 79.9066 26.064 80.3226 26.064C80.6666 26.064 80.9866 25.992 81.2826 25.848C81.5866 25.696 81.8426 25.464 82.0506 25.152L82.9266 25.704C82.6786 26.144 82.3266 26.484 81.8706 26.724C81.4226 26.956 80.9106 27.072 80.3346 27.072ZM85.176 27V21.348L85.464 21.648H82.848V20.64H88.656V21.648H86.052L86.328 21.348V27H85.176ZM92.786 27.072C92.258 27.072 91.774 26.952 91.334 26.712C90.902 26.464 90.554 26.1 90.29 25.62C90.034 25.14 89.906 24.54 89.906 23.82C89.906 23.1 90.03 22.5 90.278 22.02C90.534 21.54 90.878 21.18 91.31 20.94C91.75 20.7 92.242 20.58 92.786 20.58C93.41 20.58 93.962 20.716 94.442 20.988C94.922 21.26 95.302 21.64 95.582 22.128C95.862 22.608 96.002 23.172 96.002 23.82C96.002 24.468 95.862 25.036 95.582 25.524C95.302 26.012 94.922 26.392 94.442 26.664C93.962 26.936 93.41 27.072 92.786 27.072ZM89.414 29.328V20.64H90.518V22.356L90.446 23.832L90.566 25.308V29.328H89.414ZM92.69 26.064C93.098 26.064 93.462 25.972 93.782 25.788C94.11 25.604 94.366 25.344 94.55 25.008C94.742 24.664 94.838 24.268 94.838 23.82C94.838 23.364 94.742 22.972 94.55 22.644C94.366 22.308 94.11 22.048 93.782 21.864C93.462 21.68 93.098 21.588 92.69 21.588C92.29 21.588 91.926 21.68 91.598 21.864C91.278 22.048 91.022 22.308 90.83 22.644C90.646 22.972 90.554 23.364 90.554 23.82C90.554 24.268 90.646 24.664 90.83 25.008C91.022 25.344 91.278 25.604 91.598 25.788C91.926 25.972 92.29 26.064 92.69 26.064ZM101.097 27V25.656L101.037 25.404V23.112C101.037 22.624 100.893 22.248 100.605 21.984C100.325 21.712 99.9011 21.576 99.3331 21.576C98.9571 21.576 98.5891 21.64 98.2291 21.768C97.8691 21.888 97.5651 22.052 97.3171 22.26L96.8371 21.396C97.1651 21.132 97.5571 20.932 98.0131 20.796C98.4771 20.652 98.9611 20.58 99.4651 20.58C100.337 20.58 101.009 20.792 101.481 21.216C101.953 21.64 102.189 22.288 102.189 23.16V27H101.097ZM99.0091 27.072C98.5371 27.072 98.1211 26.992 97.7611 26.832C97.4091 26.672 97.1371 26.452 96.9451 26.172C96.7531 25.884 96.6571 25.56 96.6571 25.2C96.6571 24.856 96.7371 24.544 96.8971 24.264C97.0651 23.984 97.3331 23.76 97.7011 23.592C98.0771 23.424 98.5811 23.34 99.2131 23.34H101.229V24.168H99.2611C98.6851 24.168 98.2971 24.264 98.0971 24.456C97.8971 24.648 97.7971 24.88 97.7971 25.152C97.7971 25.464 97.9211 25.716 98.1691 25.908C98.4171 26.092 98.7611 26.184 99.2011 26.184C99.6331 26.184 100.009 26.088 100.329 25.896C100.657 25.704 100.893 25.424 101.037 25.056L101.265 25.848C101.113 26.224 100.845 26.524 100.461 26.748C100.077 26.964 99.5931 27.072 99.0091 27.072ZM105.104 27V21.348L105.392 21.648H102.776V20.64H108.584V21.648H105.98L106.256 21.348V27H105.104ZM111.892 27.072C111.212 27.072 110.612 26.932 110.092 26.652C109.58 26.372 109.18 25.988 108.892 25.5C108.612 25.012 108.472 24.452 108.472 23.82C108.472 23.188 108.608 22.628 108.88 22.14C109.16 21.652 109.54 21.272 110.02 21C110.508 20.72 111.056 20.58 111.664 20.58C112.28 20.58 112.824 20.716 113.296 20.988C113.768 21.26 114.136 21.644 114.4 22.14C114.672 22.628 114.808 23.2 114.808 23.856C114.808 23.904 114.804 23.96 114.796 24.024C114.796 24.088 114.792 24.148 114.784 24.204H109.372V23.376H114.184L113.716 23.664C113.724 23.256 113.64 22.892 113.464 22.572C113.288 22.252 113.044 22.004 112.732 21.828C112.428 21.644 112.072 21.552 111.664 21.552C111.264 21.552 110.908 21.644 110.596 21.828C110.284 22.004 110.04 22.256 109.864 22.584C109.688 22.904 109.6 23.272 109.6 23.688V23.88C109.6 24.304 109.696 24.684 109.888 25.02C110.088 25.348 110.364 25.604 110.716 25.788C111.068 25.972 111.472 26.064 111.928 26.064C112.304 26.064 112.644 26 112.948 25.872C113.26 25.744 113.532 25.552 113.764 25.296L114.4 26.04C114.112 26.376 113.752 26.632 113.32 26.808C112.896 26.984 112.42 27.072 111.892 27.072ZM116.175 27V20.64H120.855V21.648H117.051L117.327 21.384V27H116.175ZM121.615 27V20.64H122.767V25.272L126.667 20.64H127.711V27H126.559V22.368L122.671 27H121.615ZM131.399 24.912C130.631 24.912 130.023 24.732 129.575 24.372C129.135 24.012 128.915 23.456 128.915 22.704V20.64H130.067V22.632C130.067 23.088 130.207 23.424 130.487 23.64C130.775 23.856 131.159 23.964 131.639 23.964C131.943 23.964 132.255 23.924 132.575 23.844C132.903 23.764 133.223 23.652 133.535 23.508V24.396C133.199 24.556 132.851 24.684 132.491 24.78C132.139 24.868 131.775 24.912 131.399 24.912ZM133.451 27V20.64H134.603V27H133.451ZM139.251 27.072C138.571 27.072 137.971 26.932 137.451 26.652C136.939 26.372 136.539 25.988 136.251 25.5C135.971 25.012 135.831 24.452 135.831 23.82C135.831 23.188 135.967 22.628 136.239 22.14C136.519 21.652 136.899 21.272 137.379 21C137.867 20.72 138.415 20.58 139.023 20.58C139.639 20.58 140.183 20.716 140.655 20.988C141.127 21.26 141.495 21.644 141.759 22.14C142.031 22.628 142.167 23.2 142.167 23.856C142.167 23.904 142.163 23.96 142.155 24.024C142.155 24.088 142.151 24.148 142.143 24.204H136.731V23.376H141.543L141.075 23.664C141.083 23.256 140.999 22.892 140.823 22.572C140.647 22.252 140.403 22.004 140.091 21.828C139.787 21.644 139.431 21.552 139.023 21.552C138.623 21.552 138.267 21.644 137.955 21.828C137.643 22.004 137.399 22.256 137.223 22.584C137.047 22.904 136.959 23.272 136.959 23.688V23.88C136.959 24.304 137.055 24.684 137.247 25.02C137.447 25.348 137.723 25.604 138.075 25.788C138.427 25.972 138.831 26.064 139.287 26.064C139.663 26.064 140.003 26 140.307 25.872C140.619 25.744 140.891 25.552 141.123 25.296L141.759 26.04C141.471 26.376 141.111 26.632 140.679 26.808C140.255 26.984 139.779 27.072 139.251 27.072ZM146.306 27.072C145.658 27.072 145.078 26.932 144.566 26.652C144.062 26.372 143.666 25.988 143.378 25.5C143.09 25.012 142.946 24.452 142.946 23.82C142.946 23.188 143.09 22.628 143.378 22.14C143.666 21.652 144.062 21.272 144.566 21C145.078 20.72 145.658 20.58 146.306 20.58C146.882 20.58 147.394 20.696 147.842 20.928C148.298 21.152 148.65 21.488 148.898 21.936L148.022 22.5C147.814 22.188 147.558 21.96 147.254 21.816C146.958 21.664 146.638 21.588 146.294 21.588C145.878 21.588 145.506 21.68 145.178 21.864C144.85 22.048 144.59 22.308 144.398 22.644C144.206 22.972 144.11 23.364 144.11 23.82C144.11 24.276 144.206 24.672 144.398 25.008C144.59 25.344 144.85 25.604 145.178 25.788C145.506 25.972 145.878 26.064 146.294 26.064C146.638 26.064 146.958 25.992 147.254 25.848C147.558 25.696 147.814 25.464 148.022 25.152L148.898 25.704C148.65 26.144 148.298 26.484 147.842 26.724C147.394 26.956 146.882 27.072 146.306 27.072ZM154.578 27L152.118 23.904L153.066 23.328L155.934 27H154.578ZM149.97 27V20.64H151.122V27H149.97ZM150.774 24.312V23.328H152.874V24.312H150.774ZM153.162 23.952L152.094 23.808L154.53 20.64H155.766L153.162 23.952ZM156.722 27V20.64H157.874V25.272L161.774 20.64H162.818V27H161.666V22.368L157.778 27H156.722ZM164.634 27V20.64H165.786V25.272L169.686 20.64H170.73V27H169.578V22.368L165.69 27H164.634ZM167.61 19.812C167.026 19.812 166.566 19.672 166.23 19.392C165.902 19.104 165.734 18.692 165.726 18.156H166.506C166.514 18.46 166.614 18.7 166.806 18.876C167.006 19.052 167.27 19.14 167.598 19.14C167.926 19.14 168.19 19.052 168.39 18.876C168.59 18.7 168.694 18.46 168.702 18.156H169.506C169.498 18.692 169.326 19.104 168.99 19.392C168.654 19.672 168.194 19.812 167.61 19.812ZM178.72 27.072C178.192 27.072 177.708 26.952 177.268 26.712C176.836 26.464 176.488 26.1 176.224 25.62C175.968 25.14 175.84 24.54 175.84 23.82C175.84 23.1 175.964 22.5 176.212 22.02C176.468 21.54 176.812 21.18 177.244 20.94C177.684 20.7 178.176 20.58 178.72 20.58C179.344 20.58 179.896 20.716 180.376 20.988C180.856 21.26 181.236 21.64 181.516 22.128C181.796 22.608 181.936 23.172 181.936 23.82C181.936 24.468 181.796 25.036 181.516 25.524C181.236 26.012 180.856 26.392 180.376 26.664C179.896 26.936 179.344 27.072 178.72 27.072ZM175.348 29.328V20.64H176.452V22.356L176.38 23.832L176.5 25.308V29.328H175.348ZM178.624 26.064C179.032 26.064 179.396 25.972 179.716 25.788C180.044 25.604 180.3 25.344 180.484 25.008C180.676 24.664 180.772 24.268 180.772 23.82C180.772 23.364 180.676 22.972 180.484 22.644C180.3 22.308 180.044 22.048 179.716 21.864C179.396 21.68 179.032 21.588 178.624 21.588C178.224 21.588 177.86 21.68 177.532 21.864C177.212 22.048 176.956 22.308 176.764 22.644C176.58 22.972 176.488 23.364 176.488 23.82C176.488 24.268 176.58 24.664 176.764 25.008C176.956 25.344 177.212 25.604 177.532 25.788C177.86 25.972 178.224 26.064 178.624 26.064ZM187.032 27V25.656L186.972 25.404V23.112C186.972 22.624 186.828 22.248 186.54 21.984C186.26 21.712 185.836 21.576 185.268 21.576C184.892 21.576 184.524 21.64 184.164 21.768C183.804 21.888 183.5 22.052 183.252 22.26L182.772 21.396C183.1 21.132 183.492 20.932 183.948 20.796C184.412 20.652 184.896 20.58 185.4 20.58C186.272 20.58 186.944 20.792 187.416 21.216C187.888 21.64 188.124 22.288 188.124 23.16V27H187.032ZM184.944 27.072C184.472 27.072 184.056 26.992 183.696 26.832C183.344 26.672 183.072 26.452 182.88 26.172C182.688 25.884 182.592 25.56 182.592 25.2C182.592 24.856 182.672 24.544 182.832 24.264C183 23.984 183.268 23.76 183.636 23.592C184.012 23.424 184.516 23.34 185.148 23.34H187.164V24.168H185.196C184.62 24.168 184.232 24.264 184.032 24.456C183.832 24.648 183.732 24.88 183.732 25.152C183.732 25.464 183.856 25.716 184.104 25.908C184.352 26.092 184.696 26.184 185.136 26.184C185.568 26.184 185.944 26.088 186.264 25.896C186.592 25.704 186.828 25.424 186.972 25.056L187.2 25.848C187.048 26.224 186.78 26.524 186.396 26.748C186.012 26.964 185.528 27.072 184.944 27.072ZM191.638 27.084C191.158 27.084 190.686 27.024 190.222 26.904C189.766 26.776 189.358 26.596 188.998 26.364L189.346 25.488C189.65 25.68 189.998 25.832 190.39 25.944C190.782 26.048 191.178 26.1 191.578 26.1C191.946 26.1 192.262 26.056 192.526 25.968C192.798 25.88 193.006 25.76 193.15 25.608C193.294 25.448 193.366 25.264 193.366 25.056C193.366 24.76 193.234 24.532 192.97 24.372C192.706 24.212 192.338 24.132 191.866 24.132H190.498V23.304H191.794C192.074 23.304 192.318 23.272 192.526 23.208C192.734 23.144 192.894 23.048 193.006 22.92C193.126 22.784 193.186 22.628 193.186 22.452C193.186 22.26 193.118 22.096 192.982 21.96C192.846 21.824 192.654 21.72 192.406 21.648C192.166 21.576 191.882 21.54 191.554 21.54C191.234 21.548 190.906 21.592 190.57 21.672C190.242 21.752 189.906 21.876 189.562 22.044L189.25 21.144C189.634 20.96 190.01 20.82 190.378 20.724C190.754 20.62 191.126 20.564 191.494 20.556C192.046 20.54 192.538 20.604 192.97 20.748C193.402 20.884 193.742 21.084 193.99 21.348C194.246 21.612 194.374 21.924 194.374 22.284C194.374 22.588 194.278 22.86 194.086 23.1C193.894 23.332 193.638 23.516 193.318 23.652C192.998 23.788 192.63 23.856 192.214 23.856L192.262 23.58C192.974 23.58 193.534 23.72 193.942 24C194.35 24.28 194.554 24.66 194.554 25.14C194.554 25.524 194.426 25.864 194.17 26.16C193.914 26.448 193.566 26.676 193.126 26.844C192.694 27.004 192.198 27.084 191.638 27.084ZM198.825 27.096C198.297 27.096 197.829 27.012 197.421 26.844C197.021 26.676 196.677 26.428 196.389 26.1C196.101 25.764 195.881 25.344 195.729 24.84C195.585 24.328 195.513 23.728 195.513 23.04C195.513 22.496 195.561 22.008 195.657 21.576C195.753 21.144 195.889 20.76 196.065 20.424C196.249 20.088 196.473 19.796 196.737 19.548C197.009 19.3 197.313 19.096 197.649 18.936C197.993 18.768 198.369 18.64 198.777 18.552L201.681 17.904L201.849 18.972L199.173 19.548C199.013 19.58 198.821 19.628 198.597 19.692C198.373 19.756 198.145 19.856 197.913 19.992C197.681 20.12 197.465 20.3 197.265 20.532C197.065 20.764 196.905 21.068 196.785 21.444C196.665 21.812 196.605 22.268 196.605 22.812C196.605 22.964 196.609 23.08 196.617 23.16C196.625 23.24 196.633 23.32 196.641 23.4C196.657 23.48 196.669 23.6 196.677 23.76L196.197 23.268C196.325 22.828 196.529 22.444 196.809 22.116C197.089 21.788 197.425 21.536 197.817 21.36C198.217 21.176 198.653 21.084 199.125 21.084C199.717 21.084 200.241 21.212 200.697 21.468C201.161 21.724 201.525 22.076 201.789 22.524C202.053 22.972 202.185 23.484 202.185 24.06C202.185 24.644 202.045 25.168 201.765 25.632C201.493 26.088 201.105 26.448 200.601 26.712C200.097 26.968 199.505 27.096 198.825 27.096ZM198.933 26.136C199.341 26.136 199.701 26.048 200.013 25.872C200.325 25.688 200.569 25.444 200.745 25.14C200.921 24.828 201.009 24.48 201.009 24.096C201.009 23.712 200.921 23.372 200.745 23.076C200.569 22.78 200.325 22.548 200.013 22.38C199.701 22.204 199.333 22.116 198.909 22.116C198.509 22.116 198.149 22.2 197.829 22.368C197.509 22.528 197.261 22.756 197.085 23.052C196.909 23.34 196.821 23.676 196.821 24.06C196.821 24.444 196.909 24.796 197.085 25.116C197.269 25.428 197.517 25.676 197.829 25.86C198.149 26.044 198.517 26.136 198.933 26.136ZM206.135 27.072C205.495 27.072 204.927 26.932 204.431 26.652C203.935 26.372 203.543 25.988 203.255 25.5C202.967 25.004 202.823 24.444 202.823 23.82C202.823 23.188 202.967 22.628 203.255 22.14C203.543 21.652 203.935 21.272 204.431 21C204.927 20.72 205.495 20.58 206.135 20.58C206.767 20.58 207.331 20.72 207.827 21C208.331 21.272 208.723 21.652 209.003 22.14C209.291 22.62 209.435 23.18 209.435 23.82C209.435 24.452 209.291 25.012 209.003 25.5C208.723 25.988 208.331 26.372 207.827 26.652C207.331 26.932 206.767 27.072 206.135 27.072ZM206.135 26.064C206.543 26.064 206.907 25.972 207.227 25.788C207.555 25.604 207.811 25.344 207.995 25.008C208.179 24.664 208.271 24.268 208.271 23.82C208.271 23.364 208.179 22.972 207.995 22.644C207.811 22.308 207.555 22.048 207.227 21.864C206.907 21.68 206.543 21.588 206.135 21.588C205.727 21.588 205.363 21.68 205.043 21.864C204.723 22.048 204.467 22.308 204.275 22.644C204.083 22.972 203.987 23.364 203.987 23.82C203.987 24.268 204.083 24.664 204.275 25.008C204.467 25.344 204.723 25.604 205.043 25.788C205.363 25.972 205.727 26.064 206.135 26.064ZM214.05 27.072C213.522 27.072 213.038 26.952 212.598 26.712C212.166 26.464 211.818 26.1 211.554 25.62C211.298 25.14 211.17 24.54 211.17 23.82C211.17 23.1 211.294 22.5 211.542 22.02C211.798 21.54 212.142 21.18 212.574 20.94C213.014 20.7 213.506 20.58 214.05 20.58C214.674 20.58 215.226 20.716 215.706 20.988C216.186 21.26 216.566 21.64 216.846 22.128C217.126 22.608 217.266 23.172 217.266 23.82C217.266 24.468 217.126 25.036 216.846 25.524C216.566 26.012 216.186 26.392 215.706 26.664C215.226 26.936 214.674 27.072 214.05 27.072ZM210.678 29.328V20.64H211.782V22.356L211.71 23.832L211.83 25.308V29.328H210.678ZM213.954 26.064C214.362 26.064 214.726 25.972 215.046 25.788C215.374 25.604 215.63 25.344 215.814 25.008C216.006 24.664 216.102 24.268 216.102 23.82C216.102 23.364 216.006 22.972 215.814 22.644C215.63 22.308 215.374 22.048 215.046 21.864C214.726 21.68 214.362 21.588 213.954 21.588C213.554 21.588 213.19 21.68 212.862 21.864C212.542 22.048 212.286 22.308 212.094 22.644C211.91 22.972 211.818 23.364 211.818 23.82C211.818 24.268 211.91 24.664 212.094 25.008C212.286 25.344 212.542 25.604 212.862 25.788C213.19 25.972 213.554 26.064 213.954 26.064Z" fill="white"/>
</svg>
