<svg width="102" height="26" viewBox="0 0 102 26" fill="none" xmlns="http://www.w3.org/2000/svg">
<path d="M0.170006 7.16003V0.160034H6.06001V7.16003H5.33001V0.600034L5.52001 0.800034H0.710006L0.900006 0.600034V7.16003H0.170006ZM10.012 7.21003C9.50529 7.21003 9.04863 7.0967 8.64196 6.87003C8.24196 6.6367 7.92529 6.32003 7.69196 5.92003C7.45863 5.51337 7.34196 5.05003 7.34196 4.53003C7.34196 4.00337 7.45863 3.54003 7.69196 3.14003C7.92529 2.74003 8.24196 2.4267 8.64196 2.20003C9.04196 1.97337 9.49863 1.86003 10.012 1.86003C10.532 1.86003 10.992 1.97337 11.392 2.20003C11.7986 2.4267 12.1153 2.74003 12.342 3.14003C12.5753 3.54003 12.692 4.00337 12.692 4.53003C12.692 5.05003 12.5753 5.51337 12.342 5.92003C12.1153 6.32003 11.7986 6.6367 11.392 6.87003C10.9853 7.0967 10.5253 7.21003 10.012 7.21003ZM10.012 6.58003C10.392 6.58003 10.7286 6.4967 11.022 6.33003C11.3153 6.1567 11.5453 5.9167 11.712 5.61003C11.8853 5.2967 11.972 4.9367 11.972 4.53003C11.972 4.1167 11.8853 3.7567 11.712 3.45003C11.5453 3.14337 11.3153 2.9067 11.022 2.74003C10.7286 2.5667 10.3953 2.48003 10.022 2.48003C9.64863 2.48003 9.31529 2.5667 9.02196 2.74003C8.72863 2.9067 8.49529 3.14337 8.32196 3.45003C8.14863 3.7567 8.06196 4.1167 8.06196 4.53003C8.06196 4.9367 8.14863 5.2967 8.32196 5.61003C8.49529 5.9167 8.72863 6.1567 9.02196 6.33003C9.31529 6.4967 9.64529 6.58003 10.012 6.58003ZM13.8094 7.16003V1.91003H14.5194V4.23003H17.8294V1.91003H18.5394V7.16003H17.8294V4.84003H14.5194V7.16003H13.8094ZM23.5474 7.16003V5.27003L23.6774 5.42003H21.8974C21.2241 5.42003 20.6974 5.27337 20.3174 4.98003C19.9374 4.6867 19.7474 4.26003 19.7474 3.70003C19.7474 3.10003 19.9508 2.65337 20.3574 2.36003C20.7641 2.06003 21.3074 1.91003 21.9874 1.91003H24.1974V7.16003H23.5474ZM19.7074 7.16003L21.1474 5.14003H21.8874L20.4774 7.16003H19.7074ZM23.5474 5.06003V2.32003L23.6774 2.53003H22.0074C21.5208 2.53003 21.1408 2.62337 20.8674 2.81003C20.6008 2.9967 20.4674 3.30003 20.4674 3.72003C20.4674 4.50003 20.9641 4.89003 21.9574 4.89003H23.6774L23.5474 5.06003ZM26.8219 7.16003V2.34003L27.0019 2.53003H24.8319V1.91003H29.5219V2.53003H27.3519L27.5319 2.34003V7.16003H26.8219ZM30.1484 7.16003V1.91003H30.8584V4.23003H34.1684V1.91003H34.8784V7.16003H34.1684V4.84003H30.8584V7.16003H30.1484ZM39.7565 7.16003V6.00003L39.7265 5.81003V3.87003C39.7265 3.42337 39.5998 3.08003 39.3465 2.84003C39.0998 2.60003 38.7298 2.48003 38.2365 2.48003C37.8965 2.48003 37.5732 2.5367 37.2665 2.65003C36.9598 2.76337 36.6998 2.91337 36.4865 3.10003L36.1665 2.57003C36.4332 2.34337 36.7532 2.17003 37.1265 2.05003C37.4998 1.92337 37.8932 1.86003 38.3065 1.86003C38.9865 1.86003 39.5098 2.03003 39.8765 2.37003C40.2498 2.70337 40.4365 3.21337 40.4365 3.90003V7.16003H39.7565ZM37.9465 7.21003C37.5532 7.21003 37.2098 7.1467 36.9165 7.02003C36.6298 6.8867 36.4098 6.7067 36.2565 6.48003C36.1032 6.2467 36.0265 5.98003 36.0265 5.68003C36.0265 5.4067 36.0898 5.16003 36.2165 4.94003C36.3498 4.71337 36.5632 4.53337 36.8565 4.40003C37.1565 4.26003 37.5565 4.19003 38.0565 4.19003H39.8665V4.72003H38.0765C37.5698 4.72003 37.2165 4.81003 37.0165 4.99003C36.8232 5.17003 36.7265 5.39337 36.7265 5.66003C36.7265 5.96003 36.8432 6.20003 37.0765 6.38003C37.3098 6.56003 37.6365 6.65003 38.0565 6.65003C38.4565 6.65003 38.7998 6.56003 39.0865 6.38003C39.3798 6.19337 39.5932 5.9267 39.7265 5.58003L39.8865 6.07003C39.7532 6.4167 39.5198 6.69337 39.1865 6.90003C38.8598 7.1067 38.4465 7.21003 37.9465 7.21003ZM45.3166 7.16003V5.27003L45.4466 5.42003H43.6666C42.9932 5.42003 42.4666 5.27337 42.0866 4.98003C41.7066 4.6867 41.5166 4.26003 41.5166 3.70003C41.5166 3.10003 41.7199 2.65337 42.1266 2.36003C42.5332 2.06003 43.0766 1.91003 43.7566 1.91003H45.9666V7.16003H45.3166ZM41.4766 7.16003L42.9166 5.14003H43.6566L42.2466 7.16003H41.4766ZM45.3166 5.06003V2.32003L45.4466 2.53003H43.7766C43.2899 2.53003 42.9099 2.62337 42.6366 2.81003C42.3699 2.9967 42.2366 3.30003 42.2366 3.72003C42.2366 4.50003 42.7332 4.89003 43.7266 4.89003H45.4466L45.3166 5.06003ZM51.9682 7.21003C51.4615 7.21003 51.0049 7.0967 50.5982 6.87003C50.1982 6.6367 49.8815 6.32003 49.6482 5.92003C49.4149 5.51337 49.2982 5.05003 49.2982 4.53003C49.2982 4.00337 49.4149 3.54003 49.6482 3.14003C49.8815 2.74003 50.1982 2.4267 50.5982 2.20003C50.9982 1.97337 51.4549 1.86003 51.9682 1.86003C52.4882 1.86003 52.9482 1.97337 53.3482 2.20003C53.7549 2.4267 54.0715 2.74003 54.2982 3.14003C54.5315 3.54003 54.6482 4.00337 54.6482 4.53003C54.6482 5.05003 54.5315 5.51337 54.2982 5.92003C54.0715 6.32003 53.7549 6.6367 53.3482 6.87003C52.9415 7.0967 52.4815 7.21003 51.9682 7.21003ZM51.9682 6.58003C52.3482 6.58003 52.6849 6.4967 52.9782 6.33003C53.2715 6.1567 53.5015 5.9167 53.6682 5.61003C53.8415 5.2967 53.9282 4.9367 53.9282 4.53003C53.9282 4.1167 53.8415 3.7567 53.6682 3.45003C53.5015 3.14337 53.2715 2.9067 52.9782 2.74003C52.6849 2.5667 52.3515 2.48003 51.9782 2.48003C51.6049 2.48003 51.2715 2.5667 50.9782 2.74003C50.6849 2.9067 50.4515 3.14337 50.2782 3.45003C50.1049 3.7567 50.0182 4.1167 50.0182 4.53003C50.0182 4.9367 50.1049 5.2967 50.2782 5.61003C50.4515 5.9167 50.6849 6.1567 50.9782 6.33003C51.2715 6.4967 51.6015 6.58003 51.9682 6.58003ZM56.5703 7.16003V2.34003L56.7503 2.53003H54.5803V1.91003H59.2703V2.53003H57.1003L57.2803 2.34003V7.16003H56.5703ZM61.3669 5.37003C60.7469 5.37003 60.2569 5.23003 59.8969 4.95003C59.5369 4.66337 59.3569 4.22337 59.3569 3.63003V1.91003H60.0569V3.59003C60.0569 3.99003 60.1869 4.29003 60.4469 4.49003C60.7069 4.69003 61.0569 4.79003 61.4969 4.79003C61.7635 4.79003 62.0435 4.7567 62.3369 4.69003C62.6302 4.6167 62.9269 4.51337 63.2269 4.38003L63.2169 4.94003C62.9102 5.07337 62.6002 5.18003 62.2869 5.26003C61.9802 5.33337 61.6735 5.37003 61.3669 5.37003ZM63.1569 7.16003V1.91003H63.8669V7.16003H63.1569ZM67.7332 7.21003C67.1865 7.21003 66.7065 7.0967 66.2932 6.87003C65.8799 6.6367 65.5565 6.32003 65.3232 5.92003C65.0899 5.51337 64.9732 5.05003 64.9732 4.53003C64.9732 4.01003 65.0832 3.55003 65.3032 3.15003C65.5299 2.75003 65.8365 2.4367 66.2232 2.21003C66.6165 1.9767 67.0565 1.86003 67.5432 1.86003C68.0365 1.86003 68.4732 1.97337 68.8532 2.20003C69.2399 2.42003 69.5432 2.73337 69.7632 3.14003C69.9832 3.54003 70.0932 4.00337 70.0932 4.53003C70.0932 4.56337 70.0899 4.60003 70.0832 4.64003C70.0832 4.67337 70.0832 4.71003 70.0832 4.75003H65.5132V4.22003H69.7032L69.4232 4.43003C69.4232 4.05003 69.3399 3.71337 69.1732 3.42003C69.0132 3.12003 68.7932 2.8867 68.5132 2.72003C68.2332 2.55337 67.9099 2.47003 67.5432 2.47003C67.1832 2.47003 66.8599 2.55337 66.5732 2.72003C66.2865 2.8867 66.0632 3.12003 65.9032 3.42003C65.7432 3.72003 65.6632 4.06337 65.6632 4.45003V4.56003C65.6632 4.96003 65.7499 5.31337 65.9232 5.62003C66.1032 5.92003 66.3499 6.1567 66.6632 6.33003C66.9832 6.4967 67.3465 6.58003 67.7532 6.58003C68.0732 6.58003 68.3699 6.52337 68.6432 6.41003C68.9232 6.2967 69.1632 6.12337 69.3632 5.89003L69.7632 6.35003C69.5299 6.63003 69.2365 6.84337 68.8832 6.99003C68.5365 7.1367 68.1532 7.21003 67.7332 7.21003ZM68.4332 0.860034C68.3199 0.860034 68.2199 0.820034 68.1332 0.740034C68.0465 0.660034 68.0032 0.5567 68.0032 0.430034C68.0032 0.303367 68.0465 0.200034 68.1332 0.120034C68.2199 0.0400339 68.3199 3.39746e-05 68.4332 3.39746e-05C68.5532 3.39746e-05 68.6532 0.0400339 68.7332 0.120034C68.8199 0.200034 68.8632 0.303367 68.8632 0.430034C68.8632 0.5567 68.8199 0.660034 68.7332 0.740034C68.6532 0.820034 68.5532 0.860034 68.4332 0.860034ZM66.6532 0.860034C66.5332 0.860034 66.4299 0.820034 66.3432 0.740034C66.2632 0.660034 66.2232 0.5567 66.2232 0.430034C66.2232 0.303367 66.2632 0.200034 66.3432 0.120034C66.4299 0.0400339 66.5332 3.39746e-05 66.6532 3.39746e-05C66.7665 3.39746e-05 66.8665 0.0400339 66.9532 0.120034C67.0399 0.200034 67.0832 0.303367 67.0832 0.430034C67.0832 0.5567 67.0399 0.660034 66.9532 0.740034C66.8665 0.820034 66.7665 0.860034 66.6532 0.860034ZM72.0305 7.16003V2.34003L72.2105 2.53003H70.0405V1.91003H74.7305V2.53003H72.5605L72.7405 2.34003V7.16003H72.0305ZM75.357 7.16003V1.91003H76.067V4.23003H79.377V1.91003H80.087V7.16003H79.377V4.84003H76.067V7.16003H75.357ZM83.8651 7.21003C83.3584 7.21003 82.9018 7.0967 82.4951 6.87003C82.0951 6.6367 81.7784 6.32003 81.5451 5.92003C81.3118 5.51337 81.1951 5.05003 81.1951 4.53003C81.1951 4.00337 81.3118 3.54003 81.5451 3.14003C81.7784 2.74003 82.0951 2.4267 82.4951 2.20003C82.8951 1.97337 83.3518 1.86003 83.8651 1.86003C84.3851 1.86003 84.8451 1.97337 85.2451 2.20003C85.6518 2.4267 85.9684 2.74003 86.1951 3.14003C86.4284 3.54003 86.5451 4.00337 86.5451 4.53003C86.5451 5.05003 86.4284 5.51337 86.1951 5.92003C85.9684 6.32003 85.6518 6.6367 85.2451 6.87003C84.8384 7.0967 84.3784 7.21003 83.8651 7.21003ZM83.8651 6.58003C84.2451 6.58003 84.5818 6.4967 84.8751 6.33003C85.1684 6.1567 85.3984 5.9167 85.5651 5.61003C85.7384 5.2967 85.8251 4.9367 85.8251 4.53003C85.8251 4.1167 85.7384 3.7567 85.5651 3.45003C85.3984 3.14337 85.1684 2.9067 84.8751 2.74003C84.5818 2.5667 84.2484 2.48003 83.8751 2.48003C83.5018 2.48003 83.1684 2.5667 82.8751 2.74003C82.5818 2.9067 82.3484 3.14337 82.1751 3.45003C82.0018 3.7567 81.9151 4.1167 81.9151 4.53003C81.9151 4.9367 82.0018 5.2967 82.1751 5.61003C82.3484 5.9167 82.5818 6.1567 82.8751 6.33003C83.1684 6.4967 83.4984 6.58003 83.8651 6.58003ZM89.8625 7.21003C89.3425 7.21003 88.8758 7.0967 88.4625 6.87003C88.0558 6.6367 87.7358 6.32003 87.5025 5.92003C87.2692 5.51337 87.1525 5.05003 87.1525 4.53003C87.1525 4.00337 87.2692 3.54003 87.5025 3.14003C87.7358 2.74003 88.0558 2.4267 88.4625 2.20003C88.8758 1.97337 89.3425 1.86003 89.8625 1.86003C90.3092 1.86003 90.7125 1.9467 91.0725 2.12003C91.4325 2.29337 91.7158 2.55337 91.9225 2.90003L91.3925 3.26003C91.2125 2.99337 90.9892 2.7967 90.7225 2.67003C90.4558 2.54337 90.1658 2.48003 89.8525 2.48003C89.4792 2.48003 89.1425 2.5667 88.8425 2.74003C88.5425 2.9067 88.3058 3.14337 88.1325 3.45003C87.9592 3.7567 87.8725 4.1167 87.8725 4.53003C87.8725 4.94337 87.9592 5.30337 88.1325 5.61003C88.3058 5.9167 88.5425 6.1567 88.8425 6.33003C89.1425 6.4967 89.4792 6.58003 89.8525 6.58003C90.1658 6.58003 90.4558 6.5167 90.7225 6.39003C90.9892 6.26337 91.2125 6.07003 91.3925 5.81003L91.9225 6.17003C91.7158 6.51003 91.4325 6.77003 91.0725 6.95003C90.7125 7.12337 90.3092 7.21003 89.8625 7.21003ZM93.7996 7.16003V2.34003L93.9796 2.53003H91.8096V1.91003H96.4996V2.53003H94.3296L94.5096 2.34003V7.16003H93.7996ZM99.2462 7.17003L97.1262 7.16003V1.91003H97.8362V3.74003L99.3862 3.76003C100.046 3.7667 100.546 3.91337 100.886 4.20003C101.233 4.4867 101.406 4.90003 101.406 5.44003C101.406 6.00003 101.22 6.43003 100.846 6.73003C100.48 7.03003 99.9462 7.1767 99.2462 7.17003ZM99.2062 6.63003C99.6928 6.6367 100.06 6.54003 100.306 6.34003C100.56 6.13337 100.686 5.83337 100.686 5.44003C100.686 5.0467 100.563 4.76003 100.316 4.58003C100.07 4.39337 99.6995 4.2967 99.2062 4.29003L97.8362 4.27003V6.61003L99.2062 6.63003ZM5.52833e-06 23.16V17.91H0.710006V22.08L4.22001 17.91H4.85001V23.16H4.14001V18.98L0.640006 23.16H5.52833e-06ZM10.172 21.37C9.55196 21.37 9.06196 21.23 8.70196 20.95C8.34196 20.6634 8.16196 20.2234 8.16196 19.63V17.91H8.86196V19.59C8.86196 19.99 8.99196 20.29 9.25196 20.49C9.51196 20.69 9.86196 20.79 10.302 20.79C10.5686 20.79 10.8486 20.7567 11.142 20.69C11.4353 20.6167 11.732 20.5134 12.032 20.38L12.022 20.94C11.7153 21.0734 11.4053 21.18 11.092 21.26C10.7853 21.3334 10.4786 21.37 10.172 21.37ZM11.962 23.16V17.91H12.672V23.16H11.962ZM16.5383 23.21C15.9916 23.21 15.5116 23.0967 15.0983 22.87C14.685 22.6367 14.3616 22.32 14.1283 21.92C13.895 21.5134 13.7783 21.05 13.7783 20.53C13.7783 20.01 13.8883 19.55 14.1083 19.15C14.335 18.75 14.6416 18.4367 15.0283 18.21C15.4216 17.9767 15.8616 17.86 16.3483 17.86C16.8416 17.86 17.2783 17.9734 17.6583 18.2C18.045 18.42 18.3483 18.7334 18.5683 19.14C18.7883 19.54 18.8983 20.0034 18.8983 20.53C18.8983 20.5634 18.895 20.6 18.8883 20.64C18.8883 20.6734 18.8883 20.71 18.8883 20.75H14.3183V20.22H18.5083L18.2283 20.43C18.2283 20.05 18.145 19.7134 17.9783 19.42C17.8183 19.12 17.5983 18.8867 17.3183 18.72C17.0383 18.5534 16.715 18.47 16.3483 18.47C15.9883 18.47 15.665 18.5534 15.3783 18.72C15.0916 18.8867 14.8683 19.12 14.7083 19.42C14.5483 19.72 14.4683 20.0634 14.4683 20.45V20.56C14.4683 20.96 14.555 21.3134 14.7283 21.62C14.9083 21.92 15.155 22.1567 15.4683 22.33C15.7883 22.4967 16.1516 22.58 16.5583 22.58C16.8783 22.58 17.175 22.5234 17.4483 22.41C17.7283 22.2967 17.9683 22.1234 18.1683 21.89L18.5683 22.35C18.335 22.63 18.0416 22.8434 17.6883 22.99C17.3416 23.1367 16.9583 23.21 16.5383 23.21ZM22.2699 23.21C21.7499 23.21 21.2833 23.0967 20.8699 22.87C20.4633 22.6367 20.1433 22.32 19.9099 21.92C19.6766 21.5134 19.5599 21.05 19.5599 20.53C19.5599 20.0034 19.6766 19.54 19.9099 19.14C20.1433 18.74 20.4633 18.4267 20.8699 18.2C21.2833 17.9734 21.7499 17.86 22.2699 17.86C22.7166 17.86 23.1199 17.9467 23.4799 18.12C23.8399 18.2934 24.1233 18.5534 24.3299 18.9L23.7999 19.26C23.6199 18.9934 23.3966 18.7967 23.1299 18.67C22.8633 18.5434 22.5733 18.48 22.2599 18.48C21.8866 18.48 21.5499 18.5667 21.2499 18.74C20.9499 18.9067 20.7133 19.1434 20.5399 19.45C20.3666 19.7567 20.2799 20.1167 20.2799 20.53C20.2799 20.9434 20.3666 21.3034 20.5399 21.61C20.7133 21.9167 20.9499 22.1567 21.2499 22.33C21.5499 22.4967 21.8866 22.58 22.2599 22.58C22.5733 22.58 22.8633 22.5167 23.1299 22.39C23.3966 22.2634 23.6199 22.07 23.7999 21.81L24.3299 22.17C24.1233 22.51 23.8399 22.77 23.4799 22.95C23.1199 23.1234 22.7166 23.21 22.2699 23.21ZM26.207 23.16V18.34L26.387 18.53H24.217V17.91H28.907V18.53H26.737L26.917 18.34V23.16H26.207ZM29.5336 23.16V17.91H30.2436V20.23H33.5536V17.91H34.2636V23.16H33.5536V20.84H30.2436V23.16H29.5336ZM37.9616 23.17L35.8816 23.16V17.91H36.5916V19.74L38.0916 19.76C38.7516 19.7667 39.255 19.9134 39.6016 20.2C39.9483 20.4867 40.1216 20.9 40.1216 21.44C40.1216 22 39.935 22.43 39.5616 22.73C39.1883 23.03 38.655 23.1767 37.9616 23.17ZM37.9116 22.63C38.405 22.6367 38.775 22.54 39.0216 22.34C39.275 22.1334 39.4016 21.8334 39.4016 21.44C39.4016 21.0467 39.2783 20.76 39.0316 20.58C38.785 20.3934 38.4116 20.2967 37.9116 20.29L36.5916 20.27V22.61L37.9116 22.63ZM41.0016 23.16V17.91H41.7116V23.16H41.0016ZM45.5832 23.21C45.0365 23.21 44.5565 23.0967 44.1432 22.87C43.7299 22.6367 43.4065 22.32 43.1732 21.92C42.9399 21.5134 42.8232 21.05 42.8232 20.53C42.8232 20.01 42.9332 19.55 43.1532 19.15C43.3799 18.75 43.6865 18.4367 44.0732 18.21C44.4665 17.9767 44.9065 17.86 45.3932 17.86C45.8865 17.86 46.3232 17.9734 46.7032 18.2C47.0899 18.42 47.3932 18.7334 47.6132 19.14C47.8332 19.54 47.9432 20.0034 47.9432 20.53C47.9432 20.5634 47.9399 20.6 47.9332 20.64C47.9332 20.6734 47.9332 20.71 47.9332 20.75H43.3632V20.22H47.5532L47.2732 20.43C47.2732 20.05 47.1899 19.7134 47.0232 19.42C46.8632 19.12 46.6432 18.8867 46.3632 18.72C46.0832 18.5534 45.7599 18.47 45.3932 18.47C45.0332 18.47 44.7099 18.5534 44.4232 18.72C44.1365 18.8867 43.9132 19.12 43.7532 19.42C43.5932 19.72 43.5132 20.0634 43.5132 20.45V20.56C43.5132 20.96 43.5999 21.3134 43.7732 21.62C43.9532 21.92 44.1999 22.1567 44.5132 22.33C44.8332 22.4967 45.1965 22.58 45.6032 22.58C45.9232 22.58 46.2199 22.5234 46.4932 22.41C46.7732 22.2967 47.0132 22.1234 47.2132 21.89L47.6132 22.35C47.3799 22.63 47.0865 22.8434 46.7332 22.99C46.3865 23.1367 46.0032 23.21 45.5832 23.21ZM51.332 23.16V17.91H52.052L54.432 21.94H54.132L56.552 17.91H57.212V23.16H56.562V18.72L56.692 18.78L54.432 22.52H54.112L51.832 18.74L51.982 18.71V23.16H51.332ZM61.0824 23.21C60.5358 23.21 60.0558 23.0967 59.6424 22.87C59.2291 22.6367 58.9058 22.32 58.6724 21.92C58.4391 21.5134 58.3224 21.05 58.3224 20.53C58.3224 20.01 58.4324 19.55 58.6524 19.15C58.8791 18.75 59.1858 18.4367 59.5724 18.21C59.9658 17.9767 60.4058 17.86 60.8924 17.86C61.3858 17.86 61.8224 17.9734 62.2024 18.2C62.5891 18.42 62.8924 18.7334 63.1124 19.14C63.3324 19.54 63.4424 20.0034 63.4424 20.53C63.4424 20.5634 63.4391 20.6 63.4324 20.64C63.4324 20.6734 63.4324 20.71 63.4324 20.75H58.8624V20.22H63.0524L62.7724 20.43C62.7724 20.05 62.6891 19.7134 62.5224 19.42C62.3624 19.12 62.1424 18.8867 61.8624 18.72C61.5824 18.5534 61.2591 18.47 60.8924 18.47C60.5324 18.47 60.2091 18.5534 59.9224 18.72C59.6358 18.8867 59.4124 19.12 59.2524 19.42C59.0924 19.72 59.0124 20.0634 59.0124 20.45V20.56C59.0124 20.96 59.0991 21.3134 59.2724 21.62C59.4524 21.92 59.6991 22.1567 60.0124 22.33C60.3324 22.4967 60.6958 22.58 61.1024 22.58C61.4224 22.58 61.7191 22.5234 61.9924 22.41C62.2724 22.2967 62.5124 22.1234 62.7124 21.89L63.1124 22.35C62.8791 22.63 62.5858 22.8434 62.2324 22.99C61.8858 23.1367 61.5024 23.21 61.0824 23.21ZM65.3797 23.16V18.34L65.5597 18.53H63.3897V17.91H68.0797V18.53H65.9097L66.0897 18.34V23.16H65.3797ZM71.4163 23.21C70.9629 23.21 70.5529 23.1067 70.1863 22.9C69.8196 22.6867 69.5263 22.3834 69.3063 21.99C69.0929 21.59 68.9863 21.1034 68.9863 20.53C68.9863 19.9567 69.0929 19.4734 69.3063 19.08C69.5196 18.68 69.8096 18.3767 70.1763 18.17C70.5429 17.9634 70.9563 17.86 71.4163 17.86C71.9163 17.86 72.3629 17.9734 72.7563 18.2C73.1563 18.42 73.4696 18.7334 73.6963 19.14C73.9229 19.54 74.0363 20.0034 74.0363 20.53C74.0363 21.0634 73.9229 21.53 73.6963 21.93C73.4696 22.33 73.1563 22.6434 72.7563 22.87C72.3629 23.0967 71.9163 23.21 71.4163 23.21ZM68.7063 25.1V17.91H69.3863V19.49L69.3163 20.54L69.4163 21.6V25.1H68.7063ZM71.3663 22.58C71.7396 22.58 72.0729 22.4967 72.3663 22.33C72.6596 22.1567 72.8929 21.9167 73.0663 21.61C73.2396 21.2967 73.3263 20.9367 73.3263 20.53C73.3263 20.1234 73.2396 19.7667 73.0663 19.46C72.8929 19.1534 72.6596 18.9134 72.3663 18.74C72.0729 18.5667 71.7396 18.48 71.3663 18.48C70.9929 18.48 70.6563 18.5667 70.3563 18.74C70.0629 18.9134 69.8296 19.1534 69.6563 19.46C69.4896 19.7667 69.4063 20.1234 69.4063 20.53C69.4063 20.9367 69.4896 21.2967 69.6563 21.61C69.8296 21.9167 70.0629 22.1567 70.3563 22.33C70.6563 22.4967 70.9929 22.58 71.3663 22.58ZM75.1617 23.16V17.91H75.8717V22.08L79.3817 17.91H80.0117V23.16H79.3017V18.98L75.8017 23.16H75.1617ZM85.4965 23.16L83.3365 20.56L83.9265 20.21L86.3365 23.16H85.4965ZM81.6465 23.16V17.91H82.3565V23.16H81.6465ZM82.1365 20.82V20.21H83.8265V20.82H82.1365ZM83.9865 20.61L83.3265 20.51L85.4165 17.91H86.1865L83.9865 20.61ZM87.057 23.16V17.91H87.767V22.08L91.277 17.91H91.907V23.16H91.197V18.98L87.697 23.16H87.057Z" fill="#02043D"/>
</svg>
